<svg width="19" height="21" viewBox="0 0 19 21" fill="none" xmlns="http://www.w3.org/2000/svg">
<path fill-rule="evenodd" clip-rule="evenodd" d="M15.5385 2.92566C14.1665 1.40876 11.6177 0.209186 9.41987 0.251065C7.21765 0.209186 4.67327 1.40766 3.30129 2.92456C1.92931 4.44146 1.16971 6.41392 1.16987 8.45924V11.8846L0.407575 13.9152C0.26712 14.2898 0.219549 14.6928 0.268933 15.0898C0.318318 15.4867 0.463188 15.8658 0.691135 16.1946C0.919082 16.5233 1.22331 16.7919 1.57777 16.9773C1.93223 17.1627 2.32635 17.2595 2.72637 17.2592H6.04838C6.04838 18.1528 6.40335 19.0098 7.03522 19.6417C7.66709 20.2736 8.52408 20.6285 9.41768 20.6285C10.3113 20.6285 11.1683 20.2736 11.8001 19.6417C12.432 19.0098 12.787 18.1528 12.787 17.2592H16.1134C16.5132 17.2592 16.907 17.1623 17.2612 16.9769C17.6154 16.7915 17.9194 16.523 18.1472 16.1944C18.375 15.8659 18.5198 15.487 18.5692 15.0903C18.6187 14.6936 18.5713 14.2907 18.4311 13.9163L17.6699 11.8857V8.46034C17.67 6.41502 16.9104 4.44256 15.5385 2.92566ZM2.81987 8.45924V11.8868C2.81987 12.0826 2.78357 12.2784 2.71537 12.4621L1.95307 14.4949C1.90635 14.6197 1.89055 14.7539 1.90701 14.8862C1.92347 15.0184 1.97171 15.1446 2.0476 15.2541C2.12349 15.3637 2.22477 15.4532 2.34279 15.515C2.4608 15.5768 2.59204 15.6092 2.72527 15.6092H16.1134C16.2466 15.6092 16.3778 15.5768 16.4959 15.515C16.6139 15.4532 16.7152 15.3637 16.7911 15.2541C16.8669 15.1446 16.9152 15.0184 16.9316 14.8862C16.9481 14.7539 16.9323 14.6197 16.8856 14.4949L16.1233 12.4621C16.0548 12.2781 16.0198 12.0832 16.0199 11.8868V8.45924C16.0199 7.59251 15.8492 6.73427 15.5175 5.93353C15.1858 5.13278 14.6996 4.4052 14.0868 3.79233C13.4739 3.17947 12.7463 2.69331 11.9456 2.36163C11.1448 2.02995 10.2866 1.85924 9.41987 1.85924C8.55315 1.85924 7.69491 2.02995 6.89416 2.36163C6.09342 2.69331 5.36584 3.17947 4.75297 3.79233C4.1401 4.4052 3.65395 5.13278 3.32227 5.93353C2.99059 6.73427 2.81987 7.59251 2.81987 8.45924ZM8.21687 18.4468C7.89578 18.1337 7.70972 17.7075 7.69837 17.2592H11.1359C11.1245 17.7075 10.9385 18.1337 10.6174 18.4468C10.2963 18.7598 9.86558 18.9351 9.41712 18.9351C8.96867 18.9351 8.53796 18.7598 8.21687 18.4468Z" fill="#67728A" stroke="#67728A" stroke-width="0.5"/>
</svg>
