<svg width="21" height="21" viewBox="0 0 21 21" fill="none" xmlns="http://www.w3.org/2000/svg">
<path fill-rule="evenodd" clip-rule="evenodd" d="M9.43775 19.3548L6.37775 14.6238L1.64675 11.5638C1.08181 11.1989 0.63038 10.6831 0.343628 10.0747C0.0568757 9.46638 -0.0537319 8.78987 0.0243413 8.12187C0.102414 7.45388 0.366046 6.82111 0.785357 6.29529C1.20467 5.76947 1.76289 5.37161 2.39675 5.14683L16.3063 0.202826C16.933 -0.0196905 17.6099 -0.0600646 18.2586 0.0863826C18.9073 0.23283 19.5012 0.560103 19.9716 1.03028C20.4419 1.50045 20.7694 2.09428 20.916 2.74294C21.0627 3.3916 21.0226 4.06855 20.8003 4.69533L18.6777 3.94383C18.7591 3.71779 18.7745 3.47327 18.7221 3.23881C18.6697 3.00436 18.5517 2.78966 18.3818 2.61978C18.2119 2.44991 17.9972 2.33187 17.7628 2.27947C17.5283 2.22706 17.2838 2.24245 17.0578 2.32383L3.15275 7.26783C2.9149 7.35174 2.70532 7.50061 2.54776 7.69756C2.3902 7.8945 2.29096 8.13164 2.26129 8.38211C2.23162 8.63257 2.27271 8.88634 2.3799 9.11465C2.48709 9.34295 2.65609 9.53666 2.86775 9.67383L7.03775 12.3723L11.9563 7.45233C12.0601 7.34493 12.1843 7.25928 12.3215 7.20039C12.4588 7.14149 12.6065 7.11053 12.7558 7.1093C12.9052 7.10807 13.0533 7.13661 13.1916 7.19324C13.3298 7.24987 13.4554 7.33347 13.5609 7.43914C13.6665 7.54482 13.75 7.67047 13.8065 7.80875C13.863 7.94704 13.8914 8.09519 13.89 8.24457C13.8887 8.39394 13.8576 8.54155 13.7985 8.67877C13.7395 8.816 13.6537 8.9401 13.5463 9.04383L8.62775 13.9638L11.3263 18.1323C11.4632 18.3441 11.6567 18.5132 11.8848 18.6206C12.1129 18.728 12.3666 18.7694 12.617 18.74C12.8674 18.7107 13.1046 18.6118 13.3018 18.4545C13.4989 18.2973 13.648 18.088 13.7323 17.8503L18.6777 3.94233L20.7973 4.69533L15.8533 18.6048C15.6283 19.2383 15.2304 19.7962 14.7047 20.2152C14.179 20.6342 13.5465 20.8977 12.8788 20.9757C12.2111 21.0538 11.5349 20.9433 10.9267 20.6569C10.3186 20.3704 9.80278 19.9193 9.43775 19.3548Z" fill="#67728A"/>
</svg>
